Coordinates
version=1
nRows=20
nColumns=24
inDegrees=yes

Units are S.I. units (second, meters, Newtons, ...)
If the header above contains a line with 'inDegrees', this indicates whether rotational values are in degrees (yes) or radians (no).

endheader
time	pelvis_tilt	pelvis_list	pelvis_rotation	pelvis_tx	pelvis_ty	pelvis_tz	hip_flexion_r	hip_adduction_r	hip_rotation_r	knee_angle_r	ankle_angle_r	subtalar_angle_r	mtp_angle_r	hip_flexion_l	hip_adduction_l	hip_rotation_l	knee_angle_l	ankle_angle_l	subtalar_angle_l	mtp_angle_l	lumbar_extension	lumbar_bending	lumbar_rotation
2.0	5.6855868220443915	0.4532362605697872	3.2176770273915123	0.08907721329914142	1.1718309699240255	0.3852666761494331	20.26651251180948	-1.616006029472411	-4.4220176392807975	-24.121160755869862	-0.15361914043726987	-0.48921867929706053	0.17476032783770373	-12.295931058400853	0.6411362095609356	4.549979022036012	-41.38692599045411	1.6594599737956621	0.8155708915395582	-0.045870554924259004	-13.378386433479157	1.3984527665712738	-9.005955993357269
2.017	5.156720482474917	0.2912622474632687	3.765052722416911	0.6422499991476321	1.0326531256285074	0.5156418036348658	19.218958007718165	-0.6315004536883825	-4.442505594017632	-25.671090693907477	1.105252605714673	-0.26712963501551246	0.6139013522996799	-8.447302559757663	0.7041007544895156	3.110942599421544	-47.69101475931015	-3.1048658041664607	-1.2830138584485282	-0.5109223108346919	-12.943811601270125	2.5868052063694185	-8.107855888786377
2.033	5.031870050401175	-1.3217034416625775	4.094592977509165	0.7859081883954834	1.1064901058697372	-0.7992567127802439	17.70837514314755	0.9275700912905402	-5.0079416946787605	-25.226437425707285	1.9520360222029476	0.6264171439231084	0.438618963708881	-5.378950725569237	-1.4407704314735212	1.1213958878748729	-54.12132447018226	-6.690777406997552	0.2866720417523883	-1.3774040156717222	-13.424877090906373	4.213834664507653	-6.8315440396895895
2.05	4.9086371329231975	-1.2155487269305778	3.607556040220385	0.9156326484277226	1.2631111159889046	0.22574470816057823	17.39844116983269	0.9215611083131076	-5.717310732549659	-26.489623081622128	3.9673046128122222	-0.007433799209023319	1.1183588205353507	-2.3074628910185098	-3.709664826836099	0.42299297102585454	-58.27526937966311	-8.470119050012613	0.1874463158280998	0.07494010389186334	-14.08796467037044	3.9277691211055514	-7.144279384228321
2.067	4.791074532874187	-1.6295054375866136	3.311786655580223	0.6342103981350483	0.7046791934091072	-0.14559004053990454	15.308268480858022	1.8897316087849754	-4.159020931246131	-24.23113599417479	3.7963639377353333	0.2824982136916709	0.20154799871112014	0.4674725754877794	-3.9081574436916577	-1.4400622423519451	-62.03866573071138	-9.819801123049492	0.10176695845130407	-0.7181915256968673	-14.387090286202818	3.871836961179847	-6.6372342518816785
2.083	4.964601196558287	-0.930225196457062	3.7666312646668136	1.0237668393057604	1.852550311777279	-0.9712642373706797	13.737772898707448	2.7868595937640075	-3.7458341168251716	-24.229231101198383	4.871407037266045	0.806897270143779	0.5935214018917001	4.462987023737139	-4.472884453065725	-1.4182197917569552	-66.3983214557805	-8.839973140364082	-0.8220131061920721	-0.2984205837974784	-14.109488275191726	4.390816512118144	-6.184263528377561
2.1	5.46609676295661	-1.268529901266798	3.122147975899681	1.128026543055017	1.7386356506674243	0.7740765541567896	11.109077531157594	3.004113454069234	-4.227381681463965	-22.75623778667786	5.829645373066879	-0.2034281948988077	0.21185384042496094	4.875300161466117	-4.930716381969795	-0.9025133950809978	-67.91795546884642	-5.4101508184347535	-0.22354907795716403	0.5493871565195184	-13.449764676998202	3.6154141200074186	-4.354418959861749
2.117	5.864297616610054	-1.3747727465626722	3.159232427237968	0.6856223762237086	1.489443028881596	0.19746446562860578	9.257333761923165	3.202095635322237	-3.9297039667621205	-19.837972662886564	5.3123351876482285	0.07531380960450584	0.45329521162114245	8.726987906763041	-4.563848452882417	-3.0198109213310547	-70.58474326751728	-3.8359191263635197	-0.6210677101736919	0.17662357945634796	-13.929400303479927	3.4212566414202965	-3.268314486024849
2.133	5.752918869454597	-1.0931916414927048	2.271850202764957	1.041158752717368	0.9271357956611086	0.8610017374651482	6.943266873880972	3.313578227191562	-3.4265987902157757	-18.89926349992314	5.870364348130511	1.1445333901460788	-0.4954674206467842	9.813187445932476	-5.513488895966303	-1.9163127305902663	-70.47280608191102	-2.8700837343773156	0.6052215560545091	0.2785122498868878	-14.575674004051352	2.3013951122531844	-2.676531391915191
2.15	5.570727551262808	-0.6887077092125106	2.0007476752346762	0.2042358135239103	0.7856434629260071	0.3727428698325733	5.253234556110328	3.363111993969456	-2.8448088218740164	-17.85881914979311	6.102714375225863	0.3519735423842836	0.5112490636591911	12.323541884782003	-5.350295530988986	-2.764082321178405	-70.61385749044192	-1.8582090232365807	-0.36104235751891733	-0.30750817047508555	-15.19621393177476	2.7797468521832274	-1.6344831570871239
2.167	5.62298605395226	-0.8552475704448159	0.6974557531454901	0.7182987674506642	1.089602853120442	-1.1571116332810105	2.868762855952682	4.074478658244011	-2.0299913777769714	-15.229083201095285	6.760704544535279	-0.0034576725699133047	-0.07526005271998512	15.368773528812657	-4.443014755768032	-2.421308567700053	-68.46392338018703	-1.0469835531792873	0.0910617189650084	0.11779619282046544	-13.839888112057649	2.2435409463863785	-0.459927203868278
2.183	5.825466628209055	-2.0911723247968395	-0.3449204798760223	0.8321357375557642	2.057021991040968	-0.08806795759899116	0.9444500211295483	3.4630881809237835	-0.646228354357639	-13.949316497554266	5.857718412126377	-0.5748689865633659	-0.12672886360515462	16.552189205538543	-4.597004875865545	-2.6124109149080113	-68.05289703276625	-0.17972480962072032	0.6535833486110875	-0.2596617885923162	-14.763857577915473	2.9160863393405556	-0.656048732891377
2.2	6.025911917694626	-2.1112932281045294	0.7135551680532682	1.0076702584545696	0.8857632307647351	0.7684185659595019	-0.6988379131836364	4.092177838405766	-1.2478093325386694	-14.132137256699584	7.480828195442097	0.5423624704784445	-0.6414067154441089	17.455940358379287	-3.427362752776973	-3.0802570198131796	-64.20635632673586	0.17715813011828763	-0.011794364944873525	-0.17445844103841066	-14.78804703254366	1.9895344167629054	-0.7492216226389651
2.217	6.652087713537728	-1.1988102011100041	-0.7234276525743744	0.6517738958798234	0.9552357905224201	0.2764579153662202	-1.373712507448039	3.5236364496414785	-0.43538106792767317	-12.109990968699249	7.597668208541278	0.3347473498582036	-0.8473632401292481	19.887759537350924	-4.795067939703273	-3.2738508088050833	-63.00520070397368	1.7356978889341346	-0.027490852629392118	-0.12384480472655421	-15.31835986739483	0.8538148854161735	1.3744040256969168
2.233	5.258764031070636	-0.9649713835405336	-0.9666011644407363	-0.04180930164794816	1.2213551888519447	0.37286363207765705	-2.7989427765277926	3.855435979499552	0.19592116560793896	-11.393249057307095	7.082364648249238	0.30735714956965915	-0.5008468489854244	21.38885420651848	-5.038284364698946	-3.6466436236453514	-56.528115172389946	0.7871079357612643	-0.1404292905694305	-0.6149782791837572	-14.71683902961355	1.2763876735346045	-0.11218624325298587
2.25	5.251950909741296	-1.4432187023274927	-1.085798526026682	0.1877156165749463	1.5052371298475515	-0.017983089192997875	-4.5259345177987935	4.442042623237358	1.0512948072661088	-10.885691846022109	7.74717333178417	0.0020947086847915883	-0.40749802441798394	22.029033745922987	-4.596177817483576	-2.8778843676053185	-53.03144933221583	0.9895741748542285	-0.005731296842538098	0.2232458406379668	-14.027786726236872	1.3214301462877895	2.2344692157360533
2.267	5.6185298440931755	-1.439066229866403	-0.7624513386825287	0.3687943741612043	1.4450407661521556	0.0784895170593754	-6.109007250786765	4.313043484281774	0.5637498256668754	-8.971478104255313	9.6008004018843	0.5009943227678126	0.07149947725284098	22.194802244577936	-3.945678150676203	-4.68365578644935	-46.615815974709456	0.6912118850118328	0.40327107166206255	0.3309325219835256	-14.696429114441663	0.9807549458330118	2.540499481660504
2.283	5.71486993387414	-1.8147009228638207	-1.067003819296859	0.4584892396953333	0.2854716302825112	-0.015954856188023267	-8.028165942447561	4.481064256833235	0.8330181434829709	-8.761348262608662	10.014713852865903	0.034935694287509665	-0.4560779814076475	21.859924451718488	-6.122017619480338	-6.048292604828864	-41.44258083852802	-0.08849587774143286	-0.6702886328531269	-0.5471409864117738	-14.81078003199701	1.4631531531769228	1.2873036772398216
2.3	5.840674234414338	-2.4836150053270383	-1.3547228907385738	0.4276092791633586	0.9151424868073443	0.33488199092808896	-9.621313368104113	5.502082686356891	0.526180074871682	-8.882194169435168	10.593395044174782	0.08048385546852839	-0.9260359706275191	21.364262403907535	-6.788702856905436	-6.726668706180503	-35.777604350778454	0.3651067105757471	0.4276676918244595	1.0706236552083794	-14.682000541565971	1.2042815503161663	0.8804356726512446
2.317	5.777775865459171	-3.542030780946494	-2.511962991866316	-0.03688381801612495	1.070551816173735	0.3752437276832843	-10.563778353243679	5.7603774070871205	1.5996673130711219	-7.331146640469501	10.429093865293288	0.33424773313926937	-0.4325420845727323	20.627652250054176	-6.895220089651194	-9.255016332143189	-29.16975535574519	0.1290336317199069	0.34854218616891425	1.5682445582526099	-14.813119742518955	1.9332176056682095	3.3552599769533944
